<svg width="40" height="40" viewBox="0 0 40 40" fill="none" xmlns="http://www.w3.org/2000/svg">
<path opacity="0.4" d="M27.234 3.33301H12.784C7.13398 3.33301 3.33398 7.29967 3.33398 13.1997V26.8163C3.33398 32.6997 7.13398 36.6663 12.784 36.6663H27.234C32.884 36.6663 36.6673 32.6997 36.6673 26.8163V13.1997C36.6673 7.29967 32.884 3.33301 27.234 3.33301Z" fill="#439B19"/>
<path d="M18.0226 25.4132C17.6492 25.4132 17.2759 25.2715 16.9909 24.9865L13.0359 21.0315C12.4659 20.4615 12.4659 19.5382 13.0359 18.9699C13.6059 18.3999 14.5276 18.3982 15.0976 18.9682L18.0226 21.8932L24.9026 15.0132C25.4726 14.4432 26.3942 14.4432 26.9642 15.0132C27.5342 15.5832 27.5342 16.5065 26.9642 17.0765L19.0542 24.9865C18.7692 25.2715 18.3959 25.4132 18.0226 25.4132Z" fill="#439B19"/>
</svg>
