<svg width="90" height="90" viewBox="0 0 90 90" fill="none" xmlns="http://www.w3.org/2000/svg">
<path d="M68.7134 90C66.4941 90 63.6468 89.2834 60.0876 87.1756L47.5677 79.7143C46.2697 78.9555 43.7573 78.9555 42.5012 79.7143L29.9394 87.1756C22.5279 91.6019 18.1732 89.8314 16.2052 88.3981C14.279 86.9649 11.2642 83.2974 13.2322 74.8665L16.2052 61.9251C16.5402 60.5761 15.8702 58.2576 14.8653 57.2459L4.48086 46.7916C-0.711341 41.5644 -0.292615 37.096 0.419219 34.904C1.13105 32.7119 3.39217 28.8337 10.5943 27.6112L23.9516 25.377C25.2078 25.1663 27.0083 23.8173 27.5526 22.6792L34.9641 7.79859C38.3139 1.01171 42.7105 0 45.0135 0C47.3165 0 51.7131 1.01171 55.0629 7.79859L62.4325 22.637C63.0187 23.7752 64.8192 25.1241 66.0754 25.3349L79.4328 27.5691C86.6767 28.7916 88.9378 32.6698 89.6078 34.8618C90.2777 37.0539 90.6965 41.5222 85.5462 46.7494L75.1618 57.2459C74.1568 58.2576 73.5287 60.534 73.8218 61.9251L76.7948 74.8665C78.7209 83.2974 75.748 86.9649 73.8218 88.3981C72.775 89.1569 71.1001 90 68.7134 90ZM45.0135 72.8009C47.0653 72.8009 49.117 73.3068 50.75 74.2763L63.2699 81.7377C66.9129 83.9297 69.2159 83.9297 70.0952 83.2974C70.9745 82.6651 71.6026 80.4309 70.6814 76.2998L67.7084 63.3583C66.9129 59.8595 68.2109 55.3489 70.7233 52.7775L81.1077 42.3232C83.1594 40.2576 84.0806 38.2342 83.6619 36.8431C83.2013 35.452 81.2751 34.3138 78.4278 33.8501L65.0705 31.6159C61.8463 31.0679 58.329 28.4543 56.8634 25.5035L49.4939 10.6651C48.1539 7.96721 46.479 6.36534 45.0135 6.36534C43.548 6.36534 41.8731 7.96721 40.575 10.6651L33.1636 25.5035C31.698 28.4543 28.1807 31.0679 24.9565 31.6159L11.6411 33.8501C8.79373 34.3138 6.86759 35.452 6.407 36.8431C5.9464 38.2342 6.90947 40.2998 8.96122 42.3232L19.3456 52.7775C21.858 55.3068 23.156 59.8595 22.3604 63.3583L19.3875 76.2998C18.4244 80.4731 19.0944 82.6651 19.9737 83.2974C20.853 83.9297 23.1142 83.8876 26.7989 81.7377L39.3188 74.2763C40.91 73.3068 42.9618 72.8009 45.0135 72.8009Z" fill="#193D9B"/>
</svg>
